<?xml version="1.0" encoding="UTF-8" standalone="no"?>
<svg
   xmlns:dc="http://purl.org/dc/elements/1.1/"
   xmlns:cc="http://creativecommons.org/ns#"
   xmlns:rdf="http://www.w3.org/1999/02/22-rdf-syntax-ns#"
   xmlns:svg="http://www.w3.org/2000/svg"
   xmlns="http://www.w3.org/2000/svg"
   viewBox="0 0 66.89 87.38"
   version="1.1"
   id="svg94">
  <metadata
     id="metadata98">
    <rdf:RDF>
      <cc:Work
         rdf:about="">
        <dc:format>image/svg+xml</dc:format>
        <dc:type
           rdf:resource="http://purl.org/dc/dcmitype/StillImage" />
        <dc:title>Asset 270</dc:title>
      </cc:Work>
    </rdf:RDF>
  </metadata>
  <defs
     id="defs4">
    <style
       id="style2">.cls-1{opacity:0.12;}.cls-2,.cls-4{fill:#aaa;}.cls-3{fill:#ebf0f9;}.cls-4{opacity:0.5;}.cls-5{fill:#ed4245;}.cls-6{fill:#c13038;}.cls-7{fill:#c2d0e1;}.cls-8{fill:#606060;}.cls-9{fill:#fff;}.cls-10{fill:none;stroke:#606060;stroke-linecap:round;stroke-miterlimit:10;stroke-width:2px;}</style>
  </defs>
  <title
     id="title6">Asset 270</title>
  <g
     id="Layer_2"
     data-name="Layer 2">
    <g
       class="cls-1"
       id="g10"
       transform="translate(155.52119,-8.3453218)">
      <path
         class="cls-2"
         d="M 0.21,22.13 A 16.46,16.46 0 0 1 6.15,9.73 c 3.75,-2.89 9.3,-3.53 13.29,-1 1.21,0.77 2.24,1.79 3.45,2.55 3.82,2.4 8.8,1.9 13.1,0.53 4.3,-1.37 8.38,-3.51 12.83,-4.25 4.45,-0.74 9.64,0.36 12.09,4.16 2.45,3.8 1.1,9.4 -2.41,12.34 -3,2.5 -7.34,3.66 -9,7.18 a 12.4,12.4 0 0 0 -0.81,4.94 C 48.6,41 48.6,46.1 51.41,49.95 a 31.75,31.75 0 0 0 4.71,4.55 c 3.67,3.29 6.71,7.55 6.84,12.68 a 10.64,10.64 0 0 1 -1,4.74 c -2.59,5.56 -8.49,6.2 -13.71,5.82 -4,-0.3 -8.11,-1.06 -12,0 -2.82,0.75 -5.31,2.4 -8,3.5 a 22,22 0 0 1 -12.71,1.14 13.68,13.68 0 0 1 -7,-3.46 C 4.73,75 4.78,68.66 5.74,63.22 6.7,57.78 8.27,52.1 6.54,46.86 A 18.84,18.84 0 0 0 4.84,43.24 34.09,34.09 0 0 1 0.14,22.86 Z"
         id="path8" />
    </g>
    <line
       class="cls-7"
       x1="82.532845"
       y1="45.520321"
       x2="82.242844"
       y2="47.560322"
       id="line46" />
    <path
       class="cls-7"
       d="m 82.442843,48.02032 a 0.5,0.5 0 0 0 0.3,-0.39 l 0.28,-2 a 0.50487622,0.50487622 0 1 0 -1,-0.14 l -0.28,2 a 0.5,0.5 0 0 0 0.69,0.53 z"
       id="path48" />
    <line
       class="cls-7"
       x1="81.362846"
       y1="46.400322"
       x2="83.412842"
       y2="46.680321"
       id="line50" />
    <path
       class="cls-7"
       d="m 83.602843,47.14032 a 0.5042073,0.5042073 0 0 0 -0.13,-1 l -2,-0.28 a 0.50487622,0.50487622 0 1 0 -0.14,1 l 2,0.28 a 0.49,0.49 0 0 0 0.27,0 z"
       id="path52" />
    <path
       class="cls-7"
       d="m 87.897296,16.965078 a 1.37,1.37 0 1 1 1.81,0.71 1.38,1.38 0 0 1 -1.81,-0.71 z m 0.69,-0.3 a 0.62,0.62 0 1 0 0.33,-0.81 0.63,0.63 0 0 0 -0.33,0.81 z"
       id="path54" />
    <circle
       class="cls-7"
       cx="55.525974"
       cy="85.109238"
       r="0.75"
       transform="rotate(-23.46)"
       id="circle56" />
    <path
       class="cls-7"
       d="m 22.68,85.44 a 0.57,0.57 0 0 1 1,0 L 24,86 l 0.31,0.54 a 0.57,0.57 0 0 1 -0.49,0.85 H 22.55 A 0.57,0.57 0 0 1 22.06,86.54 L 22.37,86 Z"
       id="path58" />
    <line
       class="cls-7"
       x1="63.450001"
       y1="41.580002"
       x2="62.369999"
       y2="43.34"
       id="line60" />
    <path
       class="cls-7"
       d="m 83.478005,28.236088 a 0.5,0.5 0 0 0 0.43,-0.24 l 1.07,-1.76 a 0.5,0.5 0 0 0 -0.85,-0.52 l -1.07,1.76 a 0.5,0.5 0 0 0 0.43,0.76 z"
       id="path62" />
    <line
       class="cls-7"
       x1="72.795738"
       y1="37.314137"
       x2="74.55574"
       y2="38.394138"
       id="line64" />
    <path
       class="cls-7"
       d="m 88.853981,28.341985 a 0.5,0.5 0 0 0 0.26,-0.93 l -1.76,-1.07 a 0.5,0.5 0 1 0 -0.52,0.85 l 1.76,1.07 a 0.49,0.49 0 0 0 0.26,0.08 z"
       id="path66" />
    <path
       class="cls-7"
       d="m 79.333885,26.470983 a 1.38,1.38 0 1 1 1.38,1.37 1.38,1.38 0 0 1 -1.38,-1.37 z m 0.75,0 a 0.63,0.63 0 1 0 0.63,-0.62 0.63,0.63 0 0 0 -0.63,0.62 z"
       id="path68" />
    <circle
       class="cls-7"
       cx="85.845032"
       cy="36.96043"
       r="0.75"
       id="circle70" />
    <path
       class="cls-7"
       d="m 80.548363,34.476778 a 0.57,0.57 0 0 0 -1,0 l -0.31,0.54 -0.31,0.54 a 0.57,0.57 0 0 0 0.49,0.85 h 1.26 a 0.57,0.57 0 0 0 0.49,-0.85 l -0.3,-0.52 z"
       id="path72" />
    <line
       class="cls-7"
       x1="21.07"
       y1="3.95"
       x2="22.83"
       y2="2.8800001"
       id="line74" />
    <path
       class="cls-7"
       d="m 83.903922,9.772667 a 0.5,0.5 0 0 1 -0.24,0.43 l -1.76,1.07 a 0.5,0.5 0 1 1 -0.52,-0.85 l 1.76,-1.07 a 0.5,0.5 0 0 1 0.76,0.43 z"
       id="path76" />
    <line
       class="cls-7"
       x1="82.313919"
       y1="10.162666"
       x2="83.383919"
       y2="11.922667"
       id="line78" />
    <path
       class="cls-7"
       d="m 83.383922,11.922667 a 0.5,0.5 0 0 1 -0.93,0.26 l -1.07,-1.76 a 0.5,0.5 0 0 1 0.85,-0.5200003 l 1.07,1.7200003 a 0.49,0.49 0 0 1 0.08,0.3 z"
       id="path80" />
    <path
       class="cls-7"
       d="m 87.551981,0.03106701 a 1.38,1.38 0 1 1 -1.37,-1.37000001 1.38,1.38 0 0 1 1.37,1.37000001 z m -2,0 a 0.63,0.63 0 1 0 0.63,-0.62 0.63,0.63 0 0 0 -0.63,0.62 z"
       id="path82" />
    <circle
       class="cls-7"
       cx="91.053894"
       cy="4.9995427"
       r="0.75"
       id="circle84" />
    <path
       class="cls-7"
       d="m 89.827134,2.0915361 a 0.57,0.57 0 0 1 0,-1 l 0.54,-0.31000004 0.53,-0.3 a 0.57,0.57 0 0 1 0.85,0.49 V 2.2215361 a 0.57,0.57 0 0 1 -0.85,0.49 l -0.53,-0.31 z"
       id="path86" />
    <g
       id="g161"
       transform="matrix(0.44131807,0,0,0.44131807,-89.482548,2.5181434)">
      <path
         class="cls-3"
         d="m 31.37,79.38 h -12.3 a 4.7,4.7 0 0 1 -4.61,-4.55 l -2.79,-53 H 51.08 L 49,60.89 l -0.3,5.73 -0.43,8.21 a 4.7,4.7 0 0 1 -4.61,4.55 H 31.37"
         id="path12" />
      <path
         class="cls-4"
         d="M 56.08,18.38 H 6.93 A 3.22,3.22 0 0 1 7.8,16.72 3.16,3.16 0 0 1 10,15.79 h 43 a 3.15,3.15 0 0 1 3.08,2.59 z"
         id="path14" />
      <path
         class="cls-5"
         d="m 11.8,15.45 1,-2.93 a 3.21,3.21 0 0 1 3,-2.14 h 31.29 a 3.21,3.21 0 0 1 3,2.2 l 1.06,3.18"
         id="path16" />
      <path
         class="cls-6"
         d="m 32.76,10.39 a 12.56,12.56 0 0 0 -1.85,3.84 c -0.67,2.48 -6.3,1.24 -8.43,1.23 -1.13,0 -10.36,-0.68 -10.68,0 l 1.41,-2.93 a 4.49,4.49 0 0 1 4.12,-2.14 c 5.12,-0.02 10.32,-0.39 15.43,0 z"
         id="path18" />
      <path
         class="cls-7"
         d="m 22.12,35 c -2.48,4.06 -2.41,9.21 -1.31,13.84 1.1,4.63 3.13,9 4.37,13.57 1.24,4.57 1.6,9.69 -0.54,13.94 a 18.9,18.9 0 0 1 -2.05,3.12 H 19.3 a 4.7,4.7 0 0 1 -4.61,-4.55 l -2.79,-53 h 17.37 a 9.86,9.86 0 0 1 -0.43,3.82 c -1.2,3.67 -4.72,6 -6.72,9.26 z"
         id="path20" />
      <path
         class="cls-8"
         d="M 53,23.07 H 10 a 4.135,4.135 0 0 1 0,-8.27 h 43 a 4.135,4.135 0 1 1 0,8.27 z M 10,16.8 a 2.135,2.135 0 0 0 0,4.27 h 43 a 2.135,2.135 0 1 0 0,-4.27 z"
         id="path22" />
      <path
         class="cls-8"
         d="M 51.2,16.25 A 1,1 0 0 1 50.25,15.57 L 49.19,12.4 a 2.21,2.21 0 0 0 -2.1,-1.51 h -5.27 a 1,1 0 0 1 0,-2 h 5.27 a 4.21,4.21 0 0 1 4,2.88 l 1.06,3.17 a 1,1 0 0 1 -0.95,1.32 z"
         id="path24" />
      <path
         class="cls-8"
         d="m 11.8,15.95 a 1,1 0 0 1 -0.33,-0.06 1,1 0 0 1 -0.61,-1.28 l 1,-2.93 a 4.22,4.22 0 0 1 4,-2.81 h 21 a 1,1 0 0 1 0,2 h -21 a 2.22,2.22 0 0 0 -2.09,1.48 l -1,2.93 a 1,1 0 0 1 -0.97,0.67 z"
         id="path26" />
      <path
         class="cls-8"
         d="M 31.5,81.38 H 19.2 a 5.71,5.71 0 0 1 -5.61,-5.5 L 12.37,52.67 a 1,1 0 0 1 0.95,-1.05 1,1 0 0 1 1.05,0.95 l 1.22,23.21 a 3.71,3.71 0 0 0 3.61,3.6 h 12.3 a 1,1 0 0 1 0,2 z"
         id="path28" />
      <path
         class="cls-8"
         d="m 12.91,45 a 1,1 0 0 1 -1,-0.95 L 10.8,22.9 a 1.0015114,1.0015114 0 0 1 2,-0.11 l 1.11,21.13 A 1,1 0 0 1 13,45 Z"
         id="path30" />
      <path
         class="cls-8"
         d="M 43.81,81.38 H 31.5 a 1,1 0 0 1 0,-2 h 12.3 a 3.71,3.71 0 0 0 3.61,-3.6 l 0.43,-8.21 a 1,1 0 0 1 1.05,-0.95 1,1 0 0 1 0.95,1.05 l -0.43,8.21 a 5.71,5.71 0 0 1 -5.6,5.5 z"
         id="path32" />
      <path
         class="cls-8"
         d="M 49.15,62.89 H 49.1 a 1,1 0 0 1 -0.95,-1.05 l 2.06,-39 a 1.0015114,1.0015114 0 0 1 2,0.11 l -2.06,39 a 1,1 0 0 1 -1,0.94 z"
         id="path34" />
      <path
         class="cls-8"
         d="m 50.78,55.54 v 0 l -10,-0.15 A 12.195124,12.195124 0 0 1 40.89,31 h 0.19 l 10.74,0.16 a 3.15,3.15 0 0 1 3.1,3.33 l -1,18.06 a 3.15,3.15 0 0 1 -3.14,2.99 z M 40.9,33 a 10.190276,10.190276 0 0 0 -0.15,20.38 l 10,0.15 v 0 a 1.15,1.15 0 0 0 1.15,-1.09 l 1,-18.06 A 1.16,1.16 0 0 0 51.76,33.16 L 41.05,33 Z"
         id="path36" />
      <path
         class="cls-9"
         d="m 53.92,34.45 -1,18.06 a 2.15,2.15 0 0 1 -2.18,2 l -10,-0.15 A 11.19,11.19 0 0 1 29.71,43 v 0 A 11.19,11.19 0 0 1 41.07,32 l 10.74,0.16 a 2.15,2.15 0 0 1 2.11,2.29 z"
         id="path38" />
      <path
         class="cls-7"
         d="m 51.25,54.5 a 2.08,2.08 0 0 1 -0.5,0 l -10,-0.15 A 11.19,11.19 0 0 1 40.89,32 h 0.18 2.88 a 11.19,11.19 0 0 0 0.78,22.34 z"
         id="path40" />
      <path
         class="cls-8"
         d="m 19,72.42 a 1,1 0 0 1 -1,-0.94 l -0.37,-6 a 1.0017984,1.0017984 0 0 1 2,-0.12 l 0.37,6 a 1,1 0 0 1 -1,1.06 z"
         id="path42" />
      <path
         class="cls-8"
         d="m 18.21,60.15 a 1,1 0 0 1 -1,-0.94 l -1.93,-31.6 a 1,1 0 0 1 0.94,-1.06 1,1 0 0 1 1.06,0.94 l 1.93,31.6 a 1,1 0 0 1 -0.94,1.06 z"
         id="path44" />
      <path
         class="cls-8"
         d="m 50.78,55.54 v 0 l -10,-0.15 A 12.195124,12.195124 0 0 1 40.89,31 h 0.19 l 10.74,0.16 a 3.15,3.15 0 0 1 3.1,3.33 l -1,18.06 a 3.15,3.15 0 0 1 -3.14,2.99 z M 40.9,33 a 10.190276,10.190276 0 0 0 -0.15,20.38 l 10,0.15 v 0 a 1.15,1.15 0 0 0 1.15,-1.09 l 1,-18.06 A 1.16,1.16 0 0 0 51.76,33.16 L 41.05,33 Z"
         id="path88" />
      <path
         class="cls-10"
         d="M 17.37,65.38"
         id="path90" />
    </g>
  </g>
</svg>
