<?xml version="1.0" encoding="UTF-8" standalone="no"?>
<svg
   xmlns:dc="http://purl.org/dc/elements/1.1/"
   xmlns:cc="http://creativecommons.org/ns#"
   xmlns:rdf="http://www.w3.org/1999/02/22-rdf-syntax-ns#"
   xmlns:svg="http://www.w3.org/2000/svg"
   xmlns="http://www.w3.org/2000/svg"
   xmlns:sodipodi="http://sodipodi.sourceforge.net/DTD/sodipodi-0.dtd"
   xmlns:inkscape="http://www.inkscape.org/namespaces/inkscape"
   inkscape:version="1.0 (4035a4f, 2020-05-01)"
   sodipodi:docname="codepen-brands.svg"
   id="svg907"
   version="1.1"
   viewBox="0 0 512 512"
   role="img"
   class="svg-inline--fa fa-codepen fa-w-16"
   data-icon="codepen"
   data-prefix="fab"
   focusable="false"
   aria-hidden="true">
  <metadata
     id="metadata913">
    <rdf:RDF>
      <cc:Work
         rdf:about="">
        <dc:format>image/svg+xml</dc:format>
        <dc:type
           rdf:resource="http://purl.org/dc/dcmitype/StillImage" />
      </cc:Work>
    </rdf:RDF>
  </metadata>
  <defs
     id="defs911" />
  <sodipodi:namedview
     inkscape:current-layer="svg907"
     inkscape:window-maximized="1"
     inkscape:window-y="0"
     inkscape:window-x="0"
     inkscape:cy="256"
     inkscape:cx="256"
     inkscape:zoom="1.0175781"
     showgrid="false"
     id="namedview909"
     inkscape:window-height="708"
     inkscape:window-width="1366"
     inkscape:pageshadow="2"
     inkscape:pageopacity="0"
     guidetolerance="10"
     gridtolerance="10"
     objecttolerance="10"
     borderopacity="1"
     bordercolor="#666666"
     pagecolor="#ffffff" />
  <path
     style="fill:#9da9ce;fill-opacity:1"
     id="path905"
     d="M502.285 159.704l-234-156c-7.987-4.915-16.511-4.96-24.571 0l-234 156C3.714 163.703 0 170.847 0 177.989v155.999c0 7.143 3.714 14.286 9.715 18.286l234 156.022c7.987 4.915 16.511 4.96 24.571 0l234-156.022c6-3.999 9.715-11.143 9.715-18.286V177.989c-.001-7.142-3.715-14.286-9.716-18.285zM278 63.131l172.286 114.858-76.857 51.429L278 165.703V63.131zm-44 0v102.572l-95.429 63.715-76.857-51.429L234 63.131zM44 219.132l55.143 36.857L44 292.846v-73.714zm190 229.715L61.714 333.989l76.857-51.429L234 346.275v102.572zm22-140.858l-77.715-52 77.715-52 77.715 52-77.715 52zm22 140.858V346.275l95.429-63.715 76.857 51.429L278 448.847zm190-156.001l-55.143-36.857L468 219.132v73.714z"
     fill="currentColor" />
</svg>
